<svg
  xmlns="http://www.w3.org/2000/svg"
  width="480"
  height="328"
  viewBox="0 0 480 328"
  role="img"
>
  <rect
    width="100%"
    height="100%"
    rx="14"
    fill="#0d1117"
    stroke="#30363d"
  />
  
<text
  x="28"
  y="38"
  fill="#e6edf3"
  font-family="Arial, Helvetica, sans-serif"
  font-size="18px"
  font-weight="700"
>
  Top Languages
</text>,
<text
  x="28"
  y="70"
  fill="#e6edf3"
  font-family="Arial, Helvetica, sans-serif"
  font-size="13px"
  font-weight="600"
>
  Lua
</text>,
<text
  x="420"
  y="70"
  fill="#8b949e"
  font-family="Arial, Helvetica, sans-serif"
  font-size="13px"
  font-weight="400"
>
  42.8%
</text>,
    <rect
      x="28"
      y="78"
      width="420"
      height="5"
      rx="3"
      fill="#21262d"
    />
  ,
    <rect
      x="28"
      y="78"
      width="179.76"
      height="5"
      rx="3"
      fill="#58a6ff"
    />
  ,
<text
  x="28"
  y="101"
  fill="#e6edf3"
  font-family="Arial, Helvetica, sans-serif"
  font-size="13px"
  font-weight="600"
>
  Vue
</text>,
<text
  x="420"
  y="101"
  fill="#8b949e"
  font-family="Arial, Helvetica, sans-serif"
  font-size="13px"
  font-weight="400"
>
  38.5%
</text>,
    <rect
      x="28"
      y="109"
      width="420"
      height="5"
      rx="3"
      fill="#21262d"
    />
  ,
    <rect
      x="28"
      y="109"
      width="161.7"
      height="5"
      rx="3"
      fill="#58a6ff"
    />
  ,
<text
  x="28"
  y="132"
  fill="#e6edf3"
  font-family="Arial, Helvetica, sans-serif"
  font-size="13px"
  font-weight="600"
>
  JavaScript
</text>,
<text
  x="420"
  y="132"
  fill="#8b949e"
  font-family="Arial, Helvetica, sans-serif"
  font-size="13px"
  font-weight="400"
>
  12.0%
</text>,
    <rect
      x="28"
      y="140"
      width="420"
      height="5"
      rx="3"
      fill="#21262d"
    />
  ,
    <rect
      x="28"
      y="140"
      width="50.4"
      height="5"
      rx="3"
      fill="#58a6ff"
    />
  ,
<text
  x="28"
  y="163"
  fill="#e6edf3"
  font-family="Arial, Helvetica, sans-serif"
  font-size="13px"
  font-weight="600"
>
  TypeScript
</text>,
<text
  x="420"
  y="163"
  fill="#8b949e"
  font-family="Arial, Helvetica, sans-serif"
  font-size="13px"
  font-weight="400"
>
  1.9%
</text>,
    <rect
      x="28"
      y="171"
      width="420"
      height="5"
      rx="3"
      fill="#21262d"
    />
  ,
    <rect
      x="28"
      y="171"
      width="7.98"
      height="5"
      rx="3"
      fill="#58a6ff"
    />
  ,
<text
  x="28"
  y="194"
  fill="#e6edf3"
  font-family="Arial, Helvetica, sans-serif"
  font-size="13px"
  font-weight="600"
>
  CSS
</text>,
<text
  x="420"
  y="194"
  fill="#8b949e"
  font-family="Arial, Helvetica, sans-serif"
  font-size="13px"
  font-weight="400"
>
  1.7%
</text>,
    <rect
      x="28"
      y="202"
      width="420"
      height="5"
      rx="3"
      fill="#21262d"
    />
  ,
    <rect
      x="28"
      y="202"
      width="7.14"
      height="5"
      rx="3"
      fill="#58a6ff"
    />
  ,
<text
  x="28"
  y="225"
  fill="#e6edf3"
  font-family="Arial, Helvetica, sans-serif"
  font-size="13px"
  font-weight="600"
>
  HTML
</text>,
<text
  x="420"
  y="225"
  fill="#8b949e"
  font-family="Arial, Helvetica, sans-serif"
  font-size="13px"
  font-weight="400"
>
  1.3%
</text>,
    <rect
      x="28"
      y="233"
      width="420"
      height="5"
      rx="3"
      fill="#21262d"
    />
  ,
    <rect
      x="28"
      y="233"
      width="5.46"
      height="5"
      rx="3"
      fill="#58a6ff"
    />
  ,
<text
  x="28"
  y="256"
  fill="#e6edf3"
  font-family="Arial, Helvetica, sans-serif"
  font-size="13px"
  font-weight="600"
>
  PowerShell
</text>,
<text
  x="420"
  y="256"
  fill="#8b949e"
  font-family="Arial, Helvetica, sans-serif"
  font-size="13px"
  font-weight="400"
>
  1.2%
</text>,
    <rect
      x="28"
      y="264"
      width="420"
      height="5"
      rx="3"
      fill="#21262d"
    />
  ,
    <rect
      x="28"
      y="264"
      width="5.04"
      height="5"
      rx="3"
      fill="#58a6ff"
    />
  ,
<text
  x="28"
  y="287"
  fill="#e6edf3"
  font-family="Arial, Helvetica, sans-serif"
  font-size="13px"
  font-weight="600"
>
  SCSS
</text>,
<text
  x="420"
  y="287"
  fill="#8b949e"
  font-family="Arial, Helvetica, sans-serif"
  font-size="13px"
  font-weight="400"
>
  0.6%
</text>,
    <rect
      x="28"
      y="295"
      width="420"
      height="5"
      rx="3"
      fill="#21262d"
    />
  ,
    <rect
      x="28"
      y="295"
      width="2.52"
      height="5"
      rx="3"
      fill="#58a6ff"
    />
  
</svg>